<svg xmlns="http://www.w3.org/2000/svg" width="38" height="38" viewBox="0 0 38 38">
  <g id="call-icon" transform="translate(-664 -409)">
    <circle id="Ellipse_2" data-name="Ellipse 2" cx="19" cy="19" r="19" transform="translate(664 409)" fill="#f6f6f6"/>
    <path id="call" d="M43.824,46.646a6.156,6.156,0,0,1-2.875-.98,18.694,18.694,0,0,1-4.516-3.378,17.135,17.135,0,0,1-3.391-4.514c-1.2-2.189-1-3.336-.769-3.827a3.055,3.055,0,0,1,1.2-1.285,5.76,5.76,0,0,1,.936-.5l.09-.04a.874.874,0,0,1,.717-.065,2.1,2.1,0,0,1,.682.523,11.327,11.327,0,0,1,1.7,2.53,2.52,2.52,0,0,1,.334,1.036,1.637,1.637,0,0,1-.417.974c-.043.058-.085.114-.126.169a1.488,1.488,0,0,0-.469.978,3.531,3.531,0,0,0,1.105,2.171,9.611,9.611,0,0,0,2.441,1.847c.463.182.649-.715.986-.972.048-.037.1-.075.15-.113a1.646,1.646,0,0,1,.989-.442h0a2.368,2.368,0,0,1,1.041.365,12.481,12.481,0,0,1,2.52,1.692,2.1,2.1,0,0,1,.524.68.881.881,0,0,1-.065.719c-.012.027-.025.057-.04.09a5.765,5.765,0,0,1-.5.934,3.055,3.055,0,0,1-1.287,1.2,2.2,2.2,0,0,1-.965.211Z" transform="translate(643.401 388.491)" fill="none" stroke="#6c6c6c" stroke-width="0.7"/>
  </g>
</svg>
